<svg width="279" height="85" viewBox="0 0 279 85" fill="none" xmlns="http://www.w3.org/2000/svg">
<path d="M5.5 7H10.8571V66.328L38.5714 23.128L42.2857 26.296L29.1429 47.7758L52 79H46.5714L26.5714 51.9783L10.8571 74.392H5.5V7Z" fill="white"/>
<path d="M10.8571 74.392H5.5V7H10.8571V66.328M10.8571 74.392V66.328M10.8571 74.392L26.5714 51.9783M10.8571 66.328L38.5714 23.128L42.2857 26.296L29.1429 47.7758M29.1429 47.7758L52 79H46.5714L26.5714 51.9783M29.1429 47.7758L26.5714 51.9783" stroke="white" stroke-width="11"/>
<path d="M63.896 67C63.576 67 63.304 66.888 63.08 66.664C62.856 66.44 62.744 66.168 62.744 65.848V34.6C62.744 34.248 62.84 33.96 63.032 33.736C63.256 33.512 63.544 33.4 63.896 33.4H85.016C85.368 33.4 85.656 33.512 85.88 33.736C86.104 33.96 86.216 34.248 86.216 34.6V37.768C86.216 38.12 86.104 38.408 85.88 38.632C85.656 38.824 85.368 38.92 85.016 38.92H69.224V47.416H83.96C84.312 47.416 84.6 47.528 84.824 47.752C85.048 47.944 85.16 48.216 85.16 48.568V51.544C85.16 51.896 85.048 52.184 84.824 52.408C84.6 52.6 84.312 52.696 83.96 52.696H69.224V61.48H85.4C85.752 61.48 86.04 61.592 86.264 61.816C86.488 62.04 86.6 62.328 86.6 62.68V65.848C86.6 66.2 86.488 66.488 86.264 66.712C86.04 66.904 85.752 67 85.4 67H63.896ZM93.7554 67C93.4354 67 93.1634 66.888 92.9394 66.664C92.7154 66.44 92.6034 66.168 92.6034 65.848V34.6C92.6034 34.248 92.6994 33.96 92.8914 33.736C93.1154 33.512 93.4034 33.4 93.7554 33.4H106.187C110.091 33.4 113.147 34.312 115.355 36.136C117.595 37.96 118.715 40.552 118.715 43.912C118.715 46.248 118.139 48.216 116.987 49.816C115.867 51.384 114.299 52.52 112.283 53.224L119.291 65.464C119.387 65.656 119.435 65.832 119.435 65.992C119.435 66.28 119.323 66.52 119.099 66.712C118.907 66.904 118.683 67 118.427 67H114.059C113.547 67 113.147 66.888 112.859 66.664C112.603 66.44 112.363 66.12 112.139 65.704L105.947 54.328H99.2754V65.848C99.2754 66.168 99.1634 66.44 98.9394 66.664C98.7474 66.888 98.4754 67 98.1234 67H93.7554ZM106.043 48.904C107.963 48.904 109.403 48.472 110.363 47.608C111.355 46.744 111.851 45.496 111.851 43.864C111.851 42.232 111.355 40.968 110.363 40.072C109.403 39.176 107.963 38.728 106.043 38.728H99.2754V48.904H106.043ZM137.719 67.48C133.367 67.48 129.975 66.376 127.543 64.168C125.111 61.96 123.831 58.68 123.703 54.328C123.671 53.4 123.655 52.04 123.655 50.248C123.655 48.424 123.671 47.048 123.703 46.12C123.831 41.864 125.143 38.6 127.639 36.328C130.135 34.056 133.495 32.92 137.719 32.92C141.943 32.92 145.303 34.056 147.799 36.328C150.327 38.6 151.655 41.864 151.783 46.12C151.847 47.976 151.879 49.352 151.879 50.248C151.879 51.112 151.847 52.472 151.783 54.328C151.623 58.68 150.327 61.96 147.895 64.168C145.463 66.376 142.071 67.48 137.719 67.48ZM137.719 61.96C139.863 61.96 141.575 61.32 142.855 60.04C144.135 58.728 144.823 56.744 144.919 54.088C144.983 52.168 145.015 50.872 145.015 50.2C145.015 49.464 144.983 48.168 144.919 46.312C144.823 43.656 144.135 41.688 142.855 40.408C141.575 39.096 139.863 38.44 137.719 38.44C135.607 38.44 133.911 39.096 132.631 40.408C131.351 41.688 130.663 43.656 130.567 46.312C130.535 47.24 130.519 48.536 130.519 50.2C130.519 51.832 130.535 53.128 130.567 54.088C130.663 56.744 131.335 58.728 132.583 60.04C133.863 61.32 135.575 61.96 137.719 61.96ZM169.846 67.48C166.998 67.48 164.55 67.048 162.502 66.184C160.454 65.32 158.902 64.184 157.846 62.776C156.79 61.368 156.23 59.848 156.166 58.216C156.166 57.928 156.262 57.688 156.454 57.496C156.646 57.304 156.886 57.208 157.174 57.208H161.446C161.83 57.208 162.118 57.288 162.31 57.448C162.534 57.576 162.742 57.8 162.934 58.12C163.254 59.208 163.99 60.12 165.142 60.856C166.294 61.592 167.862 61.96 169.846 61.96C172.118 61.96 173.83 61.592 174.982 60.856C176.134 60.088 176.71 59.032 176.71 57.688C176.71 56.792 176.406 56.056 175.798 55.48C175.222 54.904 174.342 54.408 173.158 53.992C172.006 53.576 170.278 53.064 167.974 52.456C164.198 51.56 161.43 50.376 159.67 48.904C157.942 47.4 157.078 45.272 157.078 42.52C157.078 40.664 157.574 39.016 158.566 37.576C159.59 36.136 161.046 35 162.934 34.168C164.854 33.336 167.078 32.92 169.606 32.92C172.23 32.92 174.502 33.384 176.422 34.312C178.342 35.24 179.798 36.408 180.79 37.816C181.814 39.192 182.358 40.568 182.422 41.944C182.422 42.232 182.326 42.472 182.134 42.664C181.942 42.856 181.702 42.952 181.414 42.952H176.95C176.278 42.952 175.814 42.648 175.558 42.04C175.366 41.016 174.726 40.168 173.638 39.496C172.55 38.792 171.206 38.44 169.606 38.44C167.814 38.44 166.406 38.776 165.382 39.448C164.358 40.12 163.846 41.096 163.846 42.376C163.846 43.272 164.102 44.008 164.614 44.584C165.126 45.16 165.926 45.672 167.014 46.12C168.134 46.568 169.734 47.064 171.814 47.608C174.63 48.248 176.87 48.968 178.534 49.768C180.23 50.568 181.478 51.576 182.278 52.792C183.078 54.008 183.478 55.56 183.478 57.448C183.478 59.496 182.902 61.288 181.75 62.824C180.63 64.328 179.03 65.48 176.95 66.28C174.902 67.08 172.534 67.48 169.846 67.48ZM190.13 67C189.81 67 189.538 66.888 189.314 66.664C189.09 66.44 188.978 66.168 188.978 65.848V34.6C188.978 34.248 189.074 33.96 189.266 33.736C189.49 33.512 189.778 33.4 190.13 33.4H211.25C211.602 33.4 211.89 33.512 212.114 33.736C212.338 33.96 212.45 34.248 212.45 34.6V37.768C212.45 38.12 212.338 38.408 212.114 38.632C211.89 38.824 211.602 38.92 211.25 38.92H195.458V47.416H210.194C210.546 47.416 210.834 47.528 211.058 47.752C211.282 47.944 211.394 48.216 211.394 48.568V51.544C211.394 51.896 211.282 52.184 211.058 52.408C210.834 52.6 210.546 52.696 210.194 52.696H195.458V61.48H211.634C211.986 61.48 212.274 61.592 212.498 61.816C212.722 62.04 212.834 62.328 212.834 62.68V65.848C212.834 66.2 212.722 66.488 212.498 66.712C212.274 66.904 211.986 67 211.634 67H190.13ZM219.99 67C219.67 67 219.398 66.888 219.174 66.664C218.95 66.44 218.838 66.168 218.838 65.848V34.6C218.838 34.248 218.934 33.96 219.126 33.736C219.35 33.512 219.638 33.4 219.99 33.4H223.686C224.07 33.4 224.358 33.48 224.55 33.64C224.742 33.768 224.918 33.944 225.078 34.168L238.902 55.672V34.6C238.902 34.248 238.998 33.96 239.19 33.736C239.414 33.512 239.702 33.4 240.054 33.4H244.086C244.438 33.4 244.726 33.512 244.95 33.736C245.174 33.96 245.286 34.248 245.286 34.6V65.8C245.286 66.152 245.174 66.44 244.95 66.664C244.726 66.888 244.454 67 244.134 67H240.39C239.846 67 239.382 66.744 238.998 66.232L225.222 45.208V65.848C225.222 66.2 225.11 66.488 224.886 66.712C224.662 66.904 224.374 67 224.022 67H219.99ZM253.927 67C253.607 67 253.335 66.888 253.111 66.664C252.887 66.44 252.775 66.168 252.775 65.848V34.6C252.775 34.248 252.871 33.96 253.063 33.736C253.287 33.512 253.575 33.4 253.927 33.4H275.047C275.399 33.4 275.687 33.512 275.911 33.736C276.135 33.96 276.247 34.248 276.247 34.6V37.768C276.247 38.12 276.135 38.408 275.911 38.632C275.687 38.824 275.399 38.92 275.047 38.92H259.255V47.416H273.991C274.343 47.416 274.631 47.528 274.855 47.752C275.079 47.944 275.191 48.216 275.191 48.568V51.544C275.191 51.896 275.079 52.184 274.855 52.408C274.631 52.6 274.343 52.696 273.991 52.696H259.255V61.48H275.431C275.783 61.48 276.071 61.592 276.295 61.816C276.519 62.04 276.631 62.328 276.631 62.68V65.848C276.631 66.2 276.519 66.488 276.295 66.712C276.071 66.904 275.783 67 275.431 67H253.927Z" fill="white"/>
<rect width="279" height="13" fill="white"/>
</svg>
